2026-04-20 10:09:24 -> Iniciando AGUITA
ffmpeg version 7.1.3-0+deb13u1 Copyright (c) 2000-2025 the FFmpeg developers
  built with gcc 14 (Debian 14.2.0-19)
  configuration: --prefix=/usr --extra-version=0+deb13u1 --toolchain=hardened --libdir=/usr/lib/x86_64-linux-gnu --incdir=/usr/include/x86_64-linux-gnu --arch=amd64 --enable-gpl --disable-stripping --disable-libmfx --disable-omx --enable-gnutls --enable-libaom --enable-libass --enable-libbs2b --enable-libcdio --enable-libcodec2 --enable-libdav1d --enable-libflite --enable-libfontconfig --enable-libfreetype --enable-libfribidi --enable-libglslang --enable-libgme --enable-libgsm --enable-libharfbuzz --enable-libmp3lame --enable-libmysofa --enable-libopenjpeg --enable-libopenmpt --enable-libopus --enable-librubberband --enable-libshine --enable-libsnappy --enable-libsoxr --enable-libspeex --enable-libtheora --enable-libtwolame --enable-libvidstab --enable-libvorbis --enable-libvpx --enable-libwebp --enable-libx265 --enable-libxml2 --enable-libxvid --enable-libzimg --enable-openal --enable-opencl --enable-opengl --disable-sndio --enable-libvpl --enable-libdc1394 --enable-libdrm --enable-libiec61883 --enable-chromaprint --enable-frei0r --enable-ladspa --enable-libbluray --enable-libcaca --enable-libdvdnav --enable-libdvdread --enable-libjack --enable-libpulse --enable-librabbitmq --enable-librist --enable-libsrt --enable-libssh --enable-libsvtav1 --enable-libx264 --enable-libzmq --enable-libzvbi --enable-lv2 --enable-sdl2 --enable-libplacebo --enable-librav1e --enable-pocketsphinx --enable-librsvg --enable-libjxl --enable-shared
  libavutil      59. 39.100 / 59. 39.100
  libavcodec     61. 19.101 / 61. 19.101
  libavformat    61.  7.100 / 61.  7.100
  libavdevice    61.  3.100 / 61.  3.100
  libavfilter    10.  4.100 / 10.  4.100
  libswscale      8.  3.100 /  8.  3.100
  libswresample   5.  3.100 /  5.  3.100
  libpostproc    58.  3.100 / 58.  3.100
Input #0, rtsp, from 'rtsp://visor:R0B10T3C2025@192.168.1.67:554/cam/realmonitor?channel=1&subtype=0':
  Metadata:
    title           : Media Server
  Duration: N/A, start: 0.000000, bitrate: N/A
  Stream #0:0: Video: h264 (High), yuvj420p(pc, bt709, progressive), 1920x1080 [SAR 1:1 DAR 16:9], 30 fps, 100 tbr, 90k tbn
  Stream #0:1: Audio: pcm_alaw, 8000 Hz, mono, s16, 64 kb/s
Stream mapping:
  Stream #0:0 -> #0:0 (copy)
  Stream #0:1 -> #0:1 (pcm_alaw (native) -> opus (libopus))
Press [q] to stop, [?] for help
Output #0, rtsp, to 'rtsp://136.119.96.176:8554/AGUITA':
  Metadata:
    title           : Media Server
    encoder         : Lavf61.7.100
  Stream #0:0: Video: h264 (High), yuvj420p(pc, bt709, progressive), 1920x1080 [SAR 1:1 DAR 16:9], q=2-31, 30 fps, 100 tbr, 90k tbn
  Stream #0:1: Audio: opus, 48000 Hz, stereo, s16, 96 kb/s
      Metadata:
        encoder         : Lavc61.19.101 libopus
[rtsp @ 0x5655517a4980] Timestamps are unset in a packet for stream 0. This is deprecated and will stop working in the future. Fix your code to set the timestamps properly
frame=   26 fps= 26 q=-1.0 size=N/A time=00:00:00.13 bitrate=N/A speed=0.133x    frame=   73 fps= 49 q=-1.0 size=N/A time=00:00:02.45 bitrate=N/A speed=1.64x    frame=   87 fps= 43 q=-1.0 size=N/A time=00:00:02.93 bitrate=N/A speed=1.47x    frame=  103 fps= 41 q=-1.0 size=N/A time=00:00:03.45 bitrate=N/A speed=1.38x    frame=  118 fps= 39 q=-1.0 size=N/A time=00:00:03.96 bitrate=N/A speed=1.32x    frame=  133 fps= 38 q=-1.0 size=N/A time=00:00:04.50 bitrate=N/A speed=1.29x    frame=  148 fps= 37 q=-1.0 size=N/A time=00:00:05.02 bitrate=N/A speed=1.26x    frame=  163 fps= 36 q=-1.0 size=N/A time=00:00:05.50 bitrate=N/A speed=1.22x    frame=  178 fps= 36 q=-1.0 size=N/A time=00:00:06.02 bitrate=N/A speed=1.21x    frame=  193 fps= 35 q=-1.0 size=N/A time=00:00:06.50 bitrate=N/A speed=1.18x    frame=  208 fps= 35 q=-1.0 size=N/A time=00:00:07.02 bitrate=N/A speed=1.17x    frame=  223 fps= 34 q=-1.0 size=N/A time=00:00:07.50 bitrate=N/A speed=1.15x    frame=  238 fps= 34 q=-1.0 size=N/A time=00:00:08.02 bitrate=N/A speed=1.15x    frame=  253 fps= 34 q=-1.0 size=N/A time=00:00:08.50 bitrate=N/A speed=1.13x    frame=  268 fps= 33 q=-1.0 size=N/A time=00:00:09.02 bitrate=N/A speed=1.13x    [libopus @ 0x5655516d12c0] Queue input is backward in time
frame=  283 fps= 33 q=-1.0 size=N/A time=00:00:09.49 bitrate=N/A speed=1.12x    frame=  298 fps= 33 q=-1.0 size=N/A time=00:00:10.01 bitrate=N/A speed=1.11x    frame=  313 fps= 33 q=-1.0 size=N/A time=00:00:10.49 bitrate=N/A speed= 1.1x    frame=  328 fps= 33 q=-1.0 size=N/A time=00:00:11.01 bitrate=N/A speed= 1.1x    frame=  343 fps= 33 q=-1.0 size=N/A time=00:00:11.51 bitrate=N/A speed= 1.1x    frame=  357 fps= 32 q=-1.0 size=N/A time=00:00:11.98 bitrate=N/A speed=1.09x    frame=  373 fps= 32 q=-1.0 size=N/A time=00:00:12.51 bitrate=N/A speed=1.09x    frame=  388 fps= 32 q=-1.0 size=N/A time=00:00:13.01 bitrate=N/A speed=1.08x    frame=  403 fps= 32 q=-1.0 size=N/A time=00:00:13.49 bitrate=N/A speed=1.08x    frame=  418 fps= 32 q=-1.0 size=N/A time=00:00:14.01 bitrate=N/A speed=1.08x    frame=  433 fps= 32 q=-1.0 size=N/A time=00:00:14.49 bitrate=N/A speed=1.07x    frame=  448 fps= 32 q=-1.0 size=N/A time=00:00:15.01 bitrate=N/A speed=1.07x    frame=  463 fps= 32 q=-1.0 size=N/A time=00:00:15.49 bitrate=N/A speed=1.07x    frame=  478 fps= 32 q=-1.0 size=N/A time=00:00:16.01 bitrate=N/A speed=1.07x    frame=  493 fps= 32 q=-1.0 size=N/A time=00:00:16.51 bitrate=N/A speed=1.07x    frame=  508 fps= 32 q=-1.0 size=N/A time=00:00:17.01 bitrate=N/A speed=1.06x    frame=  523 fps= 32 q=-1.0 size=N/A time=00:00:17.51 bitrate=N/A speed=1.06x    frame=  538 fps= 32 q=-1.0 size=N/A time=00:00:18.01 bitrate=N/A speed=1.06x    frame=  553 fps= 32 q=-1.0 size=N/A time=00:00:18.49 bitrate=N/A speed=1.06x    frame=  568 fps= 32 q=-1.0 size=N/A time=00:00:19.01 bitrate=N/A speed=1.06x    frame=  583 fps= 32 q=-1.0 size=N/A time=00:00:19.49 bitrate=N/A speed=1.05x    frame=  598 fps= 31 q=-1.0 size=N/A time=00:00:20.01 bitrate=N/A speed=1.05x    frame=  613 fps= 31 q=-1.0 size=N/A time=00:00:20.51 bitrate=N/A speed=1.05x    frame=  628 fps= 31 q=-1.0 size=N/A time=00:00:21.01 bitrate=N/A speed=1.05x    frame=  643 fps= 31 q=-1.0 size=N/A time=00:00:21.51 bitrate=N/A speed=1.05x    frame=  658 fps= 31 q=-1.0 size=N/A time=00:00:22.01 bitrate=N/A speed=1.05x    frame=  673 fps= 31 q=-1.0 size=N/A time=00:00:22.51 bitrate=N/A speed=1.05x    frame=  688 fps= 31 q=-1.0 size=N/A time=00:00:23.01 bitrate=N/A speed=1.05x    frame=  703 fps= 31 q=-1.0 size=N/A time=00:00:23.51 bitrate=N/A speed=1.04x    frame=  718 fps= 31 q=-1.0 size=N/A time=00:00:24.01 bitrate=N/A speed=1.04x    frame=  733 fps= 31 q=-1.0 size=N/A time=00:00:24.51 bitrate=N/A speed=1.04x    frame=  748 fps= 31 q=-1.0 size=N/A time=00:00:25.01 bitrate=N/A speed=1.04x    frame=  763 fps= 31 q=-1.0 size=N/A time=00:00:25.51 bitrate=N/A speed=1.04x    frame=  778 fps= 31 q=-1.0 size=N/A time=00:00:26.01 bitrate=N/A speed=1.04x    frame=  793 fps= 31 q=-1.0 size=N/A time=00:00:26.51 bitrate=N/A speed=1.04x    frame=  808 fps= 31 q=-1.0 size=N/A time=00:00:27.01 bitrate=N/A speed=1.04x    frame=  823 fps= 31 q=-1.0 size=N/A time=00:00:27.51 bitrate=N/A speed=1.04x    frame=  838 fps= 31 q=-1.0 size=N/A time=00:00:28.01 bitrate=N/A speed=1.04x    frame=  853 fps= 31 q=-1.0 size=N/A time=00:00:28.51 bitrate=N/A speed=1.04x    frame=  868 fps= 31 q=-1.0 size=N/A time=00:00:29.01 bitrate=N/A speed=1.04x    frame=  883 fps= 31 q=-1.0 size=N/A time=00:00:29.51 bitrate=N/A speed=1.04x    frame=  898 fps= 31 q=-1.0 size=N/A time=00:00:30.01 bitrate=N/A speed=1.03x    frame=  913 fps= 31 q=-1.0 size=N/A time=00:00:30.49 bitrate=N/A speed=1.03x    frame=  928 fps= 31 q=-1.0 size=N/A time=00:00:31.01 bitrate=N/A speed=1.03x    frame=  943 fps= 31 q=-1.0 size=N/A time=00:00:31.49 bitrate=N/A speed=1.03x    frame=  958 fps= 31 q=-1.0 size=N/A time=00:00:32.01 bitrate=N/A speed=1.03x    frame=  973 fps= 31 q=-1.0 size=N/A time=00:00:32.51 bitrate=N/A speed=1.03x    frame=  988 fps= 31 q=-1.0 size=N/A time=00:00:33.01 bitrate=N/A speed=1.03x    frame= 1003 fps= 31 q=-1.0 size=N/A time=00:00:33.49 bitrate=N/A speed=1.03x    frame= 1018 fps= 31 q=-1.0 size=N/A time=00:00:34.01 bitrate=N/A speed=1.03x    frame= 1033 fps= 31 q=-1.0 size=N/A time=00:00:34.51 bitrate=N/A speed=1.03x    frame= 1048 fps= 31 q=-1.0 size=N/A time=00:00:35.01 bitrate=N/A speed=1.03x    frame= 1063 fps= 31 q=-1.0 size=N/A time=00:00:35.49 bitrate=N/A speed=1.03x    frame= 1078 fps= 31 q=-1.0 size=N/A time=00:00:36.01 bitrate=N/A speed=1.03x    frame= 1093 fps= 31 q=-1.0 size=N/A time=00:00:36.49 bitrate=N/A speed=1.03x    frame= 1108 fps= 31 q=-1.0 size=N/A time=00:00:37.01 bitrate=N/A speed=1.03x    frame= 1123 fps= 31 q=-1.0 size=N/A time=00:00:37.49 bitrate=N/A speed=1.03x    frame= 1138 fps= 31 q=-1.0 size=N/A time=00:00:38.01 bitrate=N/A speed=1.03x    frame= 1153 fps= 31 q=-1.0 size=N/A time=00:00:38.49 bitrate=N/A speed=1.03x    frame= 1168 fps= 31 q=-1.0 size=N/A time=00:00:39.01 bitrate=N/A speed=1.03x    frame= 1183 fps= 31 q=-1.0 size=N/A time=00:00:39.51 bitrate=N/A speed=1.03x    frame= 1198 fps= 31 q=-1.0 size=N/A time=00:00:40.01 bitrate=N/A speed=1.03x    frame= 1213 fps= 31 q=-1.0 size=N/A time=00:00:40.49 bitrate=N/A speed=1.02x    frame= 1228 fps= 31 q=-1.0 size=N/A time=00:00:41.01 bitrate=N/A speed=1.02x    frame= 1243 fps= 31 q=-1.0 size=N/A time=00:00:41.51 bitrate=N/A speed=1.02x    frame= 1258 fps= 31 q=-1.0 size=N/A time=00:00:42.01 bitrate=N/A speed=1.02x    frame= 1273 fps= 31 q=-1.0 size=N/A time=00:00:42.49 bitrate=N/A speed=1.02x    frame= 1288 fps= 31 q=-1.0 size=N/A time=00:00:43.01 bitrate=N/A speed=1.02x    frame= 1303 fps= 31 q=-1.0 size=N/A time=00:00:43.49 bitrate=N/A speed=1.02x    frame= 1318 fps= 31 q=-1.0 size=N/A time=00:00:44.01 bitrate=N/A speed=1.02x    frame= 1333 fps= 31 q=-1.0 size=N/A time=00:00:44.49 bitrate=N/A speed=1.02x    frame= 1348 fps= 31 q=-1.0 size=N/A time=00:00:45.01 bitrate=N/A speed=1.02x    frame= 1363 fps= 31 q=-1.0 size=N/A time=00:00:45.49 bitrate=N/A speed=1.02x    frame= 1378 fps= 31 q=-1.0 size=N/A time=00:00:46.01 bitrate=N/A speed=1.02x    frame= 1393 fps= 31 q=-1.0 size=N/A time=00:00:46.49 bitrate=N/A speed=1.02x    frame= 1408 fps= 31 q=-1.0 size=N/A time=00:00:47.01 bitrate=N/A speed=1.02x    frame= 1423 fps= 31 q=-1.0 size=N/A time=00:00:47.51 bitrate=N/A speed=1.02x    frame= 1438 fps= 31 q=-1.0 size=N/A time=00:00:48.01 bitrate=N/A speed=1.02x    frame= 1453 fps= 31 q=-1.0 size=N/A time=00:00:48.51 bitrate=N/A speed=1.02x    frame= 1468 fps= 31 q=-1.0 size=N/A time=00:00:49.01 bitrate=N/A speed=1.02x    [libopus @ 0x5655516d12c0] Queue input is backward in time
frame= 1483 fps= 31 q=-1.0 size=N/A time=00:00:49.51 bitrate=N/A speed=1.02x    frame= 1498 fps= 31 q=-1.0 size=N/A time=00:00:50.01 bitrate=N/A speed=1.02x    frame= 1513 fps= 31 q=-1.0 size=N/A time=00:00:50.51 bitrate=N/A speed=1.02x    frame= 1528 fps= 31 q=-1.0 size=N/A time=00:00:51.01 bitrate=N/A speed=1.02x    frame= 1543 fps= 31 q=-1.0 size=N/A time=00:00:51.51 bitrate=N/A speed=1.02x    frame= 1558 fps= 31 q=-1.0 size=N/A time=00:00:52.01 bitrate=N/A speed=1.02x    frame= 1573 fps= 31 q=-1.0 size=N/A time=00:00:52.51 bitrate=N/A speed=1.02x    frame= 1588 fps= 31 q=-1.0 size=N/A time=00:00:53.01 bitrate=N/A speed=1.02x    frame= 1603 fps= 31 q=-1.0 size=N/A time=00:00:53.51 bitrate=N/A speed=1.02x    frame= 1618 fps= 31 q=-1.0 size=N/A time=00:00:54.01 bitrate=N/A speed=1.02x    frame= 1633 fps= 31 q=-1.0 size=N/A time=00:00:54.52 bitrate=N/A speed=1.02x    frame= 1648 fps= 31 q=-1.0 size=N/A time=00:00:55.02 bitrate=N/A speed=1.02x    frame= 1663 fps= 31 q=-1.0 size=N/A time=00:00:55.52 bitrate=N/A speed=1.02x    frame= 1678 fps= 30 q=-1.0 size=N/A time=00:00:56.02 bitrate=N/A speed=1.02x    frame= 1693 fps= 30 q=-1.0 size=N/A time=00:00:56.52 bitrate=N/A speed=1.02x    frame= 1708 fps= 30 q=-1.0 size=N/A time=00:00:57.02 bitrate=N/A speed=1.02x    frame= 1723 fps= 30 q=-1.0 size=N/A time=00:00:57.52 bitrate=N/A speed=1.02x    frame= 1738 fps= 30 q=-1.0 size=N/A time=00:00:58.02 bitrate=N/A speed=1.02x    frame= 1753 fps= 30 q=-1.0 size=N/A time=00:00:58.52 bitrate=N/A speed=1.02x    frame= 1768 fps= 30 q=-1.0 size=N/A time=00:00:59.02 bitrate=N/A speed=1.02x    [libopus @ 0x5655516d12c0] Queue input is backward in time
frame= 1783 fps= 30 q=-1.0 size=N/A time=00:00:59.51 bitrate=N/A speed=1.02x    frame= 1798 fps= 30 q=-1.0 size=N/A time=00:01:00.01 bitrate=N/A speed=1.02x    frame= 1813 fps= 30 q=-1.0 size=N/A time=00:01:00.49 bitrate=N/A speed=1.02x    frame= 1828 fps= 30 q=-1.0 size=N/A time=00:01:01.01 bitrate=N/A speed=1.02x    frame= 1843 fps= 30 q=-1.0 size=N/A time=00:01:01.51 bitrate=N/A speed=1.02x    frame= 1858 fps= 30 q=-1.0 size=N/A time=00:01:02.01 bitrate=N/A speed=1.02x    frame= 1873 fps= 30 q=-1.0 size=N/A time=00:01:02.49 bitrate=N/A speed=1.02x    frame= 1888 fps= 30 q=-1.0 size=N/A time=00:01:03.01 bitrate=N/A speed=1.02x    frame= 1903 fps= 30 q=-1.0 size=N/A time=00:01:03.49 bitrate=N/A speed=1.02x    frame= 1918 fps= 30 q=-1.0 size=N/A time=00:01:04.01 bitrate=N/A speed=1.02x    frame= 1933 fps= 30 q=-1.0 size=N/A time=00:01:04.49 bitrate=N/A speed=1.02x    frame= 1948 fps= 30 q=-1.0 size=N/A time=00:01:05.01 bitrate=N/A speed=1.02x    frame= 1963 fps= 30 q=-1.0 size=N/A time=00:01:05.49 bitrate=N/A speed=1.02x    frame= 1978 fps= 30 q=-1.0 size=N/A time=00:01:06.01 bitrate=N/A speed=1.02x    frame= 1993 fps= 30 q=-1.0 size=N/A time=00:01:06.51 bitrate=N/A speed=1.02x    frame= 2008 fps= 30 q=-1.0 size=N/A time=00:01:07.01 bitrate=N/A speed=1.02x    frame= 2023 fps= 30 q=-1.0 size=N/A time=00:01:07.49 bitrate=N/A speed=1.01x    frame= 2038 fps= 30 q=-1.0 size=N/A time=00:01:08.01 bitrate=N/A speed=1.01x    frame= 2053 fps= 30 q=-1.0 size=N/A time=00:01:08.51 bitrate=N/A speed=1.01x    frame= 2068 fps= 30 q=-1.0 size=N/A time=00:01:09.01 bitrate=N/A speed=1.01x    frame= 2083 fps= 30 q=-1.0 size=N/A time=00:01:09.51 bitrate=N/A speed=1.01x    frame= 2095 fps= 30 q=-1.0 size=N/A time=00:01:09.91 bitrate=N/A speed=1.01x    frame= 2113 fps= 30 q=-1.0 size=N/A time=00:01:10.51 bitrate=N/A speed=1.01x    frame= 2128 fps= 30 q=-1.0 size=N/A time=00:01:11.01 bitrate=N/A speed=1.01x    frame= 2143 fps= 30 q=-1.0 size=N/A time=00:01:11.51 bitrate=N/A speed=1.01x    frame= 2158 fps= 30 q=-1.0 size=N/A time=00:01:12.01 bitrate=N/A speed=1.01x    frame= 2173 fps= 30 q=-1.0 size=N/A time=00:01:12.51 bitrate=N/A speed=1.01x    frame= 2188 fps= 30 q=-1.0 size=N/A time=00:01:13.01 bitrate=N/A speed=1.01x    frame= 2203 fps= 30 q=-1.0 size=N/A time=00:01:13.51 bitrate=N/A speed=1.01x    frame= 2218 fps= 30 q=-1.0 size=N/A time=00:01:14.01 bitrate=N/A speed=1.01x    frame= 2233 fps= 30 q=-1.0 size=N/A time=00:01:14.51 bitrate=N/A speed=1.01x    frame= 2248 fps= 30 q=-1.0 size=N/A time=00:01:15.01 bitrate=N/A speed=1.01x    frame= 2263 fps= 30 q=-1.0 size=N/A time=00:01:15.51 bitrate=N/A speed=1.01x    frame= 2278 fps= 30 q=-1.0 size=N/A time=00:01:16.01 bitrate=N/A speed=1.01x    frame= 2293 fps= 30 q=-1.0 size=N/A time=00:01:16.51 bitrate=N/A speed=1.01x    frame= 2308 fps= 30 q=-1.0 size=N/A time=00:01:17.01 bitrate=N/A speed=1.01x    frame= 2323 fps= 30 q=-1.0 size=N/A time=00:01:17.51 bitrate=N/A speed=1.01x    frame= 2338 fps= 30 q=-1.0 size=N/A time=00:01:18.01 bitrate=N/A speed=1.01x    frame= 2353 fps= 30 q=-1.0 size=N/A time=00:01:18.51 bitrate=N/A speed=1.01x    frame= 2368 fps= 30 q=-1.0 size=N/A time=00:01:19.01 bitrate=N/A speed=1.01x    frame= 2383 fps= 30 q=-1.0 size=N/A time=00:01:19.51 bitrate=N/A speed=1.01x    frame= 2398 fps= 30 q=-1.0 size=N/A time=00:01:20.01 bitrate=N/A speed=1.01x    frame= 2413 fps= 30 q=-1.0 size=N/A time=00:01:20.51 bitrate=N/A speed=1.01x    frame= 2428 fps= 30 q=-1.0 size=N/A time=00:01:21.01 bitrate=N/A speed=1.01x    frame= 2443 fps= 30 q=-1.0 size=N/A time=00:01:21.51 bitrate=N/A speed=1.01x    frame= 2458 fps= 30 q=-1.0 size=N/A time=00:01:22.01 bitrate=N/A speed=1.01x    frame= 2473 fps= 30 q=-1.0 size=N/A time=00:01:22.51 bitrate=N/A speed=1.01x    frame= 2488 fps= 30 q=-1.0 size=N/A time=00:01:23.01 bitrate=N/A speed=1.01x    frame= 2503 fps= 30 q=-1.0 size=N/A time=00:01:23.51 bitrate=N/A speed=1.01x    frame= 2518 fps= 30 q=-1.0 size=N/A time=00:01:24.01 bitrate=N/A speed=1.01x    frame= 2533 fps= 30 q=-1.0 size=N/A time=00:01:24.51 bitrate=N/A speed=1.01x    frame= 2548 fps= 30 q=-1.0 size=N/A time=00:01:25.01 bitrate=N/A speed=1.01x    frame= 2563 fps= 30 q=-1.0 size=N/A time=00:01:25.51 bitrate=N/A speed=1.01x    frame= 2578 fps= 30 q=-1.0 size=N/A time=00:01:26.01 bitrate=N/A speed=1.01x    frame= 2593 fps= 30 q=-1.0 size=N/A time=00:01:26.51 bitrate=N/A speed=1.01x    frame= 2608 fps= 30 q=-1.0 size=N/A time=00:01:27.01 bitrate=N/A speed=1.01x    frame= 2623 fps= 30 q=-1.0 size=N/A time=00:01:27.51 bitrate=N/A speed=1.01x    frame= 2638 fps= 30 q=-1.0 size=N/A time=00:01:28.01 bitrate=N/A speed=1.01x    frame= 2653 fps= 30 q=-1.0 size=N/A time=00:01:28.51 bitrate=N/A speed=1.01x    frame= 2668 fps= 30 q=-1.0 size=N/A time=00:01:29.01 bitrate=N/A speed=1.01x    frame= 2683 fps= 30 q=-1.0 size=N/A time=00:01:29.51 bitrate=N/A speed=1.01x    frame= 2698 fps= 30 q=-1.0 size=N/A time=00:01:30.01 bitrate=N/A speed=1.01x    frame= 2713 fps= 30 q=-1.0 size=N/A time=00:01:30.49 bitrate=N/A speed=1.01x    frame= 2728 fps= 30 q=-1.0 size=N/A time=00:01:31.01 bitrate=N/A speed=1.01x    frame= 2743 fps= 30 q=-1.0 size=N/A time=00:01:31.51 bitrate=N/A speed=1.01x    frame= 2758 fps= 30 q=-1.0 size=N/A time=00:01:32.01 bitrate=N/A speed=1.01x    frame= 2774 fps= 30 q=-1.0 size=N/A time=00:01:32.53 bitrate=N/A speed=1.01x    frame= 2789 fps= 30 q=-1.0 size=N/A time=00:01:33.03 bitrate=N/A speed=1.01x    frame= 2803 fps= 30 q=-1.0 size=N/A time=00:01:33.49 bitrate=N/A speed=1.01x    frame= 2819 fps= 30 q=-1.0 size=N/A time=00:01:34.04 bitrate=N/A speed=1.01x    frame= 2834 fps= 30 q=-1.0 size=N/A time=00:01:34.54 bitrate=N/A speed=1.01x    frame= 2849 fps= 30 q=-1.0 size=N/A time=00:01:35.04 bitrate=N/A speed=1.01x    frame= 2864 fps= 30 q=-1.0 size=N/A time=00:01:35.54 bitrate=N/A speed=1.01x    frame= 2879 fps= 30 q=-1.0 size=N/A time=00:01:36.05 bitrate=N/A speed=1.01x    frame= 2894 fps= 30 q=-1.0 size=N/A time=00:01:36.54 bitrate=N/A speed=1.01x    frame= 2909 fps= 30 q=-1.0 size=N/A time=00:01:37.05 bitrate=N/A speed=1.01x    frame= 2924 fps= 30 q=-1.0 size=N/A time=00:01:37.54 bitrate=N/A speed=1.01x    frame= 2939 fps= 30 q=-1.0 size=N/A time=00:01:38.05 bitrate=N/A speed=1.01x    frame= 2954 fps= 30 q=-1.0 size=N/A time=00:01:38.54 bitrate=N/A speed=1.01x    frame= 2969 fps= 30 q=-1.0 size=N/A time=00:01:39.05 bitrate=N/A speed=1.01x    [libopus @ 0x5655516d12c0] Queue input is backward in time
frame= 2983 fps= 30 q=-1.0 size=N/A time=00:01:39.51 bitrate=N/A speed=1.01x    frame= 2999 fps= 30 q=-1.0 size=N/A time=00:01:40.04 bitrate=N/A speed=1.01x    frame= 3014 fps= 30 q=-1.0 size=N/A time=00:01:40.53 bitrate=N/A speed=1.01x    frame= 3029 fps= 30 q=-1.0 size=N/A time=00:01:41.04 bitrate=N/A speed=1.01x    frame= 3044 fps= 30 q=-1.0 size=N/A time=00:01:41.53 bitrate=N/A speed=1.01x    frame= 3059 fps= 30 q=-1.0 size=N/A time=00:01:42.04 bitrate=N/A speed=1.01x    frame= 3074 fps= 30 q=-1.0 size=N/A time=00:01:42.53 bitrate=N/A speed=1.01x    frame= 3089 fps= 30 q=-1.0 size=N/A time=00:01:43.04 bitrate=N/A speed=1.01x    frame= 3104 fps= 30 q=-1.0 size=N/A time=00:01:43.53 bitrate=N/A speed=1.01x    frame= 3119 fps= 30 q=-1.0 size=N/A time=00:01:44.04 bitrate=N/A speed=1.01x    frame= 3134 fps= 30 q=-1.0 size=N/A time=00:01:44.53 bitrate=N/A speed=1.01x    frame= 3149 fps= 30 q=-1.0 size=N/A time=00:01:45.04 bitrate=N/A speed=1.01x    frame= 3164 fps= 30 q=-1.0 size=N/A time=00:01:45.53 bitrate=N/A speed=1.01x    frame= 3179 fps= 30 q=-1.0 size=N/A time=00:01:46.04 bitrate=N/A speed=1.01x    frame= 3194 fps= 30 q=-1.0 size=N/A time=00:01:46.53 bitrate=N/A speed=1.01x    frame= 3209 fps= 30 q=-1.0 size=N/A time=00:01:47.04 bitrate=N/A speed=1.01x    frame= 3224 fps= 30 q=-1.0 size=N/A time=00:01:47.53 bitrate=N/A speed=1.01x    frame= 3239 fps= 30 q=-1.0 size=N/A time=00:01:48.04 bitrate=N/A speed=1.01x    frame= 3254 fps= 30 q=-1.0 size=N/A time=00:01:48.53 bitrate=N/A speed=1.01x    frame= 3269 fps= 30 q=-1.0 size=N/A time=00:01:49.04 bitrate=N/A speed=1.01x    frame= 3284 fps= 30 q=-1.0 size=N/A time=00:01:49.53 bitrate=N/A speed=1.01x    frame= 3299 fps= 30 q=-1.0 size=N/A time=00:01:50.04 bitrate=N/A speed=1.01x    frame= 3314 fps= 30 q=-1.0 size=N/A time=00:01:50.53 bitrate=N/A speed=1.01x    frame= 3329 fps= 30 q=-1.0 size=N/A time=00:01:51.04 bitrate=N/A speed=1.01x    frame= 3344 fps= 30 q=-1.0 size=N/A time=00:01:51.53 bitrate=N/A speed=1.01x    frame= 3359 fps= 30 q=-1.0 size=N/A time=00:01:52.04 bitrate=N/A speed=1.01x    frame= 3374 fps= 30 q=-1.0 size=N/A time=00:01:52.53 bitrate=N/A speed=1.01x    frame= 3389 fps= 30 q=-1.0 size=N/A time=00:01:53.04 bitrate=N/A speed=1.01x    frame= 3404 fps= 30 q=-1.0 size=N/A time=00:01:53.53 bitrate=N/A speed=1.01x    frame= 3419 fps= 30 q=-1.0 size=N/A time=00:01:54.04 bitrate=N/A speed=1.01x    frame= 3434 fps= 30 q=-1.0 size=N/A time=00:01:54.53 bitrate=N/A speed=1.01x    frame= 3449 fps= 30 q=-1.0 size=N/A time=00:01:55.04 bitrate=N/A speed=1.01x    frame= 3464 fps= 30 q=-1.0 size=N/A time=00:01:55.53 bitrate=N/A speed=1.01x    frame= 3479 fps= 30 q=-1.0 size=N/A time=00:01:56.04 bitrate=N/A speed=1.01x    frame= 3494 fps= 30 q=-1.0 size=N/A time=00:01:56.53 bitrate=N/A speed=1.01x    frame= 3509 fps= 30 q=-1.0 size=N/A time=00:01:57.04 bitrate=N/A speed=1.01x    frame= 3524 fps= 30 q=-1.0 size=N/A time=00:01:57.53 bitrate=N/A speed=1.01x    frame= 3539 fps= 30 q=-1.0 size=N/A time=00:01:58.04 bitrate=N/A speed=1.01x    frame= 3554 fps= 30 q=-1.0 size=N/A time=00:01:58.53 bitrate=N/A speed=1.01x    frame= 3569 fps= 30 q=-1.0 size=N/A time=00:01:59.04 bitrate=N/A speed=1.01x    frame= 3584 fps= 30 q=-1.0 size=N/A time=00:01:59.53 bitrate=N/A speed=1.01x    frame= 3599 fps= 30 q=-1.0 size=N/A time=00:02:00.04 bitrate=N/A speed=1.01x    frame= 3614 fps= 30 q=-1.0 size=N/A time=00:02:00.53 bitrate=N/A speed=1.01x    frame= 3629 fps= 30 q=-1.0 size=N/A time=00:02:01.04 bitrate=N/A speed=1.01x    frame= 3644 fps= 30 q=-1.0 size=N/A time=00:02:01.53 bitrate=N/A speed=1.01x    frame= 3659 fps= 30 q=-1.0 size=N/A time=00:02:02.04 bitrate=N/A speed=1.01x    frame= 3674 fps= 30 q=-1.0 size=N/A time=00:02:02.54 bitrate=N/A speed=1.01x    frame= 3689 fps= 30 q=-1.0 size=N/A time=00:02:03.04 bitrate=N/A speed=1.01x    frame= 3704 fps= 30 q=-1.0 size=N/A time=00:02:03.53 bitrate=N/A speed=1.01x    frame= 3719 fps= 30 q=-1.0 size=N/A time=00:02:04.04 bitrate=N/A speed=1.01x    frame= 3734 fps= 30 q=-1.0 size=N/A time=00:02:04.54 bitrate=N/A speed=1.01x    frame= 3749 fps= 30 q=-1.0 size=N/A time=00:02:05.04 bitrate=N/A speed=1.01x    frame= 3764 fps= 30 q=-1.0 size=N/A time=00:02:05.54 bitrate=N/A speed=1.01x    frame= 3779 fps= 30 q=-1.0 size=N/A time=00:02:06.04 bitrate=N/A speed=1.01x    frame= 3794 fps= 30 q=-1.0 size=N/A time=00:02:06.54 bitrate=N/A speed=1.01x    frame= 3809 fps= 30 q=-1.0 size=N/A time=00:02:07.04 bitrate=N/A speed=1.01x    frame= 3824 fps= 30 q=-1.0 size=N/A time=00:02:07.54 bitrate=N/A speed=1.01x    frame= 3839 fps= 30 q=-1.0 size=N/A time=00:02:08.04 bitrate=N/A speed=1.01x    frame= 3854 fps= 30 q=-1.0 size=N/A time=00:02:08.54 bitrate=N/A speed=1.01x    frame= 3869 fps= 30 q=-1.0 size=N/A time=00:02:09.04 bitrate=N/A speed=1.01x    [libopus @ 0x5655516d12c0] Queue input is backward in time
frame= 3884 fps= 30 q=-1.0 size=N/A time=00:02:09.54 bitrate=N/A speed=1.01x    frame= 3899 fps= 30 q=-1.0 size=N/A time=00:02:10.04 bitrate=N/A speed=1.01x    frame= 3914 fps= 30 q=-1.0 size=N/A time=00:02:10.54 bitrate=N/A speed=1.01x    frame= 3929 fps= 30 q=-1.0 size=N/A time=00:02:11.04 bitrate=N/A speed=1.01x    frame= 3944 fps= 30 q=-1.0 size=N/A time=00:02:11.54 bitrate=N/A speed=1.01x    frame= 3959 fps= 30 q=-1.0 size=N/A time=00:02:12.04 bitrate=N/A speed=1.01x    frame= 3974 fps= 30 q=-1.0 size=N/A time=00:02:12.54 bitrate=N/A speed=1.01x    frame= 3989 fps= 30 q=-1.0 size=N/A time=00:02:13.04 bitrate=N/A speed=1.01x    frame= 4004 fps= 30 q=-1.0 size=N/A time=00:02:13.54 bitrate=N/A speed=1.01x    frame= 4019 fps= 30 q=-1.0 size=N/A time=00:02:14.04 bitrate=N/A speed=1.01x    frame= 4034 fps= 30 q=-1.0 size=N/A time=00:02:14.54 bitrate=N/A speed=1.01x    frame= 4049 fps= 30 q=-1.0 size=N/A time=00:02:15.04 bitrate=N/A speed=1.01x    frame= 4064 fps= 30 q=-1.0 size=N/A time=00:02:15.54 bitrate=N/A speed=1.01x    frame= 4079 fps= 30 q=-1.0 size=N/A time=00:02:16.04 bitrate=N/A speed=1.01x    frame= 4094 fps= 30 q=-1.0 size=N/A time=00:02:16.54 bitrate=N/A speed=1.01x    frame= 4109 fps= 30 q=-1.0 size=N/A time=00:02:17.04 bitrate=N/A speed=1.01x    frame= 4124 fps= 30 q=-1.0 size=N/A time=00:02:17.54 bitrate=N/A speed=1.01x    frame= 4139 fps= 30 q=-1.0 size=N/A time=00:02:18.04 bitrate=N/A speed=1.01x    frame= 4154 fps= 30 q=-1.0 size=N/A time=00:02:18.54 bitrate=N/A speed=1.01x    frame= 4169 fps= 30 q=-1.0 size=N/A time=00:02:19.04 bitrate=N/A speed=1.01x    frame= 4184 fps= 30 q=-1.0 size=N/A time=00:02:19.54 bitrate=N/A speed=1.01x    frame= 4199 fps= 30 q=-1.0 size=N/A time=00:02:20.04 bitrate=N/A speed=1.01x    frame= 4214 fps= 30 q=-1.0 size=N/A time=00:02:20.54 bitrate=N/A speed=1.01x    frame= 4229 fps= 30 q=-1.0 size=N/A time=00:02:21.04 bitrate=N/A speed=1.01x    frame= 4244 fps= 30 q=-1.0 size=N/A time=00:02:21.54 bitrate=N/A speed=1.01x    frame= 4259 fps= 30 q=-1.0 size=N/A time=00:02:22.04 bitrate=N/A speed=1.01x    frame= 4274 fps= 30 q=-1.0 size=N/A time=00:02:22.54 bitrate=N/A speed=1.01x    frame= 4289 fps= 30 q=-1.0 size=N/A time=00:02:23.04 bitrate=N/A speed=1.01x    frame= 4304 fps= 30 q=-1.0 size=N/A time=00:02:23.54 bitrate=N/A speed=1.01x    frame= 4319 fps= 30 q=-1.0 size=N/A time=00:02:24.04 bitrate=N/A speed=1.01x    frame= 4334 fps= 30 q=-1.0 size=N/A time=00:02:24.54 bitrate=N/A speed=1.01x    frame= 4349 fps= 30 q=-1.0 size=N/A time=00:02:25.04 bitrate=N/A speed=1.01x    frame= 4364 fps= 30 q=-1.0 size=N/A time=00:02:25.54 bitrate=N/A speed=1.01x    frame= 4379 fps= 30 q=-1.0 size=N/A time=00:02:26.04 bitrate=N/A speed=1.01x    frame= 4394 fps= 30 q=-1.0 size=N/A time=00:02:26.54 bitrate=N/A speed=1.01x    frame= 4409 fps= 30 q=-1.0 size=N/A time=00:02:27.04 bitrate=N/A speed=1.01x    frame= 4424 fps= 30 q=-1.0 size=N/A time=00:02:27.54 bitrate=N/A speed=1.01x    frame= 4439 fps= 30 q=-1.0 size=N/A time=00:02:28.04 bitrate=N/A speed=1.01x    frame= 4454 fps= 30 q=-1.0 size=N/A time=00:02:28.54 bitrate=N/A speed=1.01x    frame= 4469 fps= 30 q=-1.0 size=N/A time=00:02:29.04 bitrate=N/A speed=1.01x    frame= 4484 fps= 30 q=-1.0 size=N/A time=00:02:29.54 bitrate=N/A speed=1.01x    frame= 4499 fps= 30 q=-1.0 size=N/A time=00:02:30.04 bitrate=N/A speed=1.01x    frame= 4514 fps= 30 q=-1.0 size=N/A time=00:02:30.53 bitrate=N/A speed=1.01x    frame= 4529 fps= 30 q=-1.0 size=N/A time=00:02:31.04 bitrate=N/A speed=1.01x    frame= 4544 fps= 30 q=-1.0 size=N/A time=00:02:31.53 bitrate=N/A speed=1.01x    frame= 4559 fps= 30 q=-1.0 size=N/A time=00:02:32.04 bitrate=N/A speed=1.01x    frame= 4574 fps= 30 q=-1.0 size=N/A time=00:02:32.53 bitrate=N/A speed=1.01x    frame= 4589 fps= 30 q=-1.0 size=N/A time=00:02:33.04 bitrate=N/A speed=1.01x    frame= 4604 fps= 30 q=-1.0 size=N/A time=00:02:33.54 bitrate=N/A speed=1.01x    frame= 4619 fps= 30 q=-1.0 size=N/A time=00:02:34.04 bitrate=N/A speed=1.01x    frame= 4634 fps= 30 q=-1.0 size=N/A time=00:02:34.53 bitrate=N/A speed=1.01x    frame= 4649 fps= 30 q=-1.0 size=N/A time=00:02:35.04 bitrate=N/A speed=1.01x    frame= 4664 fps= 30 q=-1.0 size=N/A time=00:02:35.53 bitrate=N/A speed=1.01x    frame= 4679 fps= 30 q=-1.0 size=N/A time=00:02:36.04 bitrate=N/A speed=1.01x    frame= 4694 fps= 30 q=-1.0 size=N/A time=00:02:36.54 bitrate=N/A speed=1.01x    frame= 4709 fps= 30 q=-1.0 size=N/A time=00:02:37.04 bitrate=N/A speed=1.01x    frame= 4724 fps= 30 q=-1.0 size=N/A time=00:02:37.54 bitrate=N/A speed=1.01x    frame= 4739 fps= 30 q=-1.0 size=N/A time=00:02:38.04 bitrate=N/A speed=1.01x    frame= 4754 fps= 30 q=-1.0 size=N/A time=00:02:38.54 bitrate=N/A speed=1.01x    frame= 4769 fps= 30 q=-1.0 size=N/A time=00:02:39.04 bitrate=N/A speed=1.01x    frame= 4784 fps= 30 q=-1.0 size=N/A time=00:02:39.54 bitrate=N/A speed=1.01x    frame= 4799 fps= 30 q=-1.0 size=N/A time=00:02:40.04 bitrate=N/A speed=1.01x    frame= 4814 fps= 30 q=-1.0 size=N/A time=00:02:40.54 bitrate=N/A speed=1.01x    frame= 4829 fps= 30 q=-1.0 size=N/A time=00:02:41.04 bitrate=N/A speed=1.01x    frame= 4844 fps= 30 q=-1.0 size=N/A time=00:02:41.54 bitrate=N/A speed=1.01x    frame= 4859 fps= 30 q=-1.0 size=N/A time=00:02:42.04 bitrate=N/A speed=1.01x    frame= 4874 fps= 30 q=-1.0 size=N/A time=00:02:42.54 bitrate=N/A speed=1.01x    frame= 4889 fps= 30 q=-1.0 size=N/A time=00:02:43.04 bitrate=N/A speed=1.01x    frame= 4904 fps= 30 q=-1.0 size=N/A time=00:02:43.54 bitrate=N/A speed=1.01x    frame= 4919 fps= 30 q=-1.0 size=N/A time=00:02:44.04 bitrate=N/A speed=1.01x    frame= 4935 fps= 30 q=-1.0 size=N/A time=00:02:44.58 bitrate=N/A speed=1.01x    frame= 4949 fps= 30 q=-1.0 size=N/A time=00:02:45.04 bitrate=N/A speed=1.01x    frame= 4965 fps= 30 q=-1.0 size=N/A time=00:02:45.58 bitrate=N/A speed=1.01x    frame= 4979 fps= 30 q=-1.0 size=N/A time=00:02:46.04 bitrate=N/A speed=1.01x    frame= 4995 fps= 30 q=-1.0 size=N/A time=00:02:46.58 bitrate=N/A speed=1.01x    frame= 5009 fps= 30 q=-1.0 size=N/A time=00:02:47.04 bitrate=N/A speed=1.01x    frame= 5025 fps= 30 q=-1.0 size=N/A time=00:02:47.58 bitrate=N/A speed=1.01x    frame= 5039 fps= 30 q=-1.0 size=N/A time=00:02:48.04 bitrate=N/A speed=1.01x    frame= 5054 fps= 30 q=-1.0 size=N/A time=00:02:48.54 bitrate=N/A speed=1.01x    frame= 5069 fps= 30 q=-1.0 size=N/A time=00:02:49.04 bitrate=N/A speed=1.01x    [libopus @ 0x5655516d12c0] Queue input is backward in time
frame= 5085 fps= 30 q=-1.0 size=N/A time=00:02:49.57 bitrate=N/A speed=1.01x    frame= 5099 fps= 30 q=-1.0 size=N/A time=00:02:50.04 bitrate=N/A speed=1.01x    frame= 5115 fps= 30 q=-1.0 size=N/A time=00:02:50.57 bitrate=N/A speed=1.01x    frame= 5129 fps= 30 q=-1.0 size=N/A time=00:02:51.04 bitrate=N/A speed=1.01x    frame= 5145 fps= 30 q=-1.0 size=N/A time=00:02:51.57 bitrate=N/A speed=1.01x    frame= 5159 fps= 30 q=-1.0 size=N/A time=00:02:52.04 bitrate=N/A speed=1.01x    frame= 5175 fps= 30 q=-1.0 size=N/A time=00:02:52.57 bitrate=N/A speed=1.01x    frame= 5190 fps= 30 q=-1.0 size=N/A time=00:02:53.08 bitrate=N/A speed=1.01x    frame= 5204 fps= 30 q=-1.0 size=N/A time=00:02:53.54 bitrate=N/A speed=1.01x    frame= 5219 fps= 30 q=-1.0 size=N/A time=00:02:54.04 bitrate=N/A speed=1.01x    frame= 5235 fps= 30 q=-1.0 size=N/A time=00:02:54.58 bitrate=N/A speed=1.01x    frame= 5249 fps= 30 q=-1.0 size=N/A time=00:02:55.04 bitrate=N/A speed=1.01x    frame= 5265 fps= 30 q=-1.0 size=N/A time=00:02:55.58 bitrate=N/A speed=1.01x    frame= 5279 fps= 30 q=-1.0 size=N/A time=00:02:56.04 bitrate=N/A speed=1.01x    frame= 5295 fps= 30 q=-1.0 size=N/A time=00:02:56.58 bitrate=N/A speed=1.01x    frame= 5309 fps= 30 q=-1.0 size=N/A time=00:02:57.04 bitrate=N/A speed=1.01x    frame= 5325 fps= 30 q=-1.0 size=N/A time=00:02:57.58 bitrate=N/A speed=1.01x    frame= 5339 fps= 30 q=-1.0 size=N/A time=00:02:58.04 bitrate=N/A speed=1.01x    frame= 5355 fps= 30 q=-1.0 size=N/A time=00:02:58.58 bitrate=N/A speed=1.01x    frame= 5370 fps= 30 q=-1.0 size=N/A time=00:02:59.08 bitrate=N/A speed=1.01x    frame= 5385 fps= 30 q=-1.0 size=N/A time=00:02:59.57 bitrate=N/A speed=1.01x    frame= 5391 fps= 30 q=-1.0 size=N/A time=00:02:59.78 bitrate=N/A speed=   1x    frame= 5415 fps= 30 q=-1.0 size=N/A time=00:03:00.57 bitrate=N/A speed=1.01x    frame= 5428 fps= 30 q=-1.0 size=N/A time=00:03:01.01 bitrate=N/A speed=1.01x    frame= 5445 fps= 30 q=-1.0 size=N/A time=00:03:01.57 bitrate=N/A speed=1.01x    frame= 5459 fps= 30 q=-1.0 size=N/A time=00:03:02.04 bitrate=N/A speed=1.01x    frame= 5475 fps= 30 q=-1.0 size=N/A time=00:03:02.57 bitrate=N/A speed=1.01x    frame= 5490 fps= 30 q=-1.0 size=N/A time=00:03:03.08 bitrate=N/A speed=1.01x    frame= 5505 fps= 30 q=-1.0 size=N/A time=00:03:03.57 bitrate=N/A speed=1.01x    frame= 5508 fps= 30 q=-1.0 size=N/A time=00:03:03.68 bitrate=N/A speed=   1x    frame= 5535 fps= 30 q=-1.0 size=N/A time=00:03:04.58 bitrate=N/A speed=1.01x    frame= 5550 fps= 30 q=-1.0 size=N/A time=00:03:05.09 bitrate=N/A speed=1.01x    frame= 5565 fps= 30 q=-1.0 size=N/A time=00:03:05.58 bitrate=N/A speed=1.01x    frame= 5579 fps= 30 q=-1.0 size=N/A time=00:03:06.06 bitrate=N/A speed=1.01x    frame= 5595 fps= 30 q=-1.0 size=N/A time=00:03:06.58 bitrate=N/A speed=1.01x    frame= 5610 fps= 30 q=-1.0 size=N/A time=00:03:07.09 bitrate=N/A speed=1.01x    frame= 5625 fps= 30 q=-1.0 size=N/A time=00:03:07.58 bitrate=N/A speed=1.01x    frame= 5639 fps= 30 q=-1.0 size=N/A time=00:03:08.05 bitrate=N/A speed=1.01x    frame= 5655 fps= 30 q=-1.0 size=N/A time=00:03:08.58 bitrate=N/A speed=1.01x    frame= 5670 fps= 30 q=-1.0 size=N/A time=00:03:09.09 bitrate=N/A speed=1.01x    [libopus @ 0x5655516d12c0] Queue input is backward in time
frame= 5685 fps= 30 q=-1.0 size=N/A time=00:03:09.57 bitrate=N/A speed=1.01x    frame= 5700 fps= 30 q=-1.0 size=N/A time=00:03:10.08 bitrate=N/A speed=1.01x    frame= 5715 fps= 30 q=-1.0 size=N/A time=00:03:10.57 bitrate=N/A speed=1.01x    frame= 5730 fps= 30 q=-1.0 size=N/A time=00:03:11.08 bitrate=N/A speed=1.01x    frame= 5745 fps= 30 q=-1.0 size=N/A time=00:03:11.57 bitrate=N/A speed=1.01x    frame= 5760 fps= 30 q=-1.0 size=N/A time=00:03:12.08 bitrate=N/A speed=1.01x    frame= 5775 fps= 30 q=-1.0 size=N/A time=00:03:12.57 bitrate=N/A speed=1.01x    frame= 5790 fps= 30 q=-1.0 size=N/A time=00:03:13.08 bitrate=N/A speed=1.01x    frame= 5805 fps= 30 q=-1.0 size=N/A time=00:03:13.57 bitrate=N/A speed=1.01x    frame= 5820 fps= 30 q=-1.0 size=N/A time=00:03:14.08 bitrate=N/A speed=1.01x    frame= 5835 fps= 30 q=-1.0 size=N/A time=00:03:14.57 bitrate=N/A speed=1.01x    frame= 5850 fps= 30 q=-1.0 size=N/A time=00:03:15.08 bitrate=N/A speed=1.01x    frame= 5865 fps= 30 q=-1.0 size=N/A time=00:03:15.57 bitrate=N/A speed=1.01x    frame= 5880 fps= 30 q=-1.0 size=N/A time=00:03:16.08 bitrate=N/A speed=1.01x    frame= 5895 fps= 30 q=-1.0 size=N/A time=00:03:16.57 bitrate=N/A speed=1.01x    frame= 5910 fps= 30 q=-1.0 size=N/A time=00:03:17.08 bitrate=N/A speed=1.01x    frame= 5925 fps= 30 q=-1.0 size=N/A time=00:03:17.57 bitrate=N/A speed=1.01x    frame= 5940 fps= 30 q=-1.0 size=N/A time=00:03:18.08 bitrate=N/A speed=1.01x    frame= 5955 fps= 30 q=-1.0 size=N/A time=00:03:18.57 bitrate=N/A speed=1.01x    frame= 5970 fps= 30 q=-1.0 size=N/A time=00:03:19.08 bitrate=N/A speed=1.01x    frame= 5985 fps= 30 q=-1.0 size=N/A time=00:03:19.57 bitrate=N/A speed=   1x    frame= 6000 fps= 30 q=-1.0 size=N/A time=00:03:20.08 bitrate=N/A speed=1.01x    frame= 6015 fps= 30 q=-1.0 size=N/A time=00:03:20.57 bitrate=N/A speed=   1x    frame= 6030 fps= 30 q=-1.0 size=N/A time=00:03:21.08 bitrate=N/A speed=1.01x    frame= 6045 fps= 30 q=-1.0 size=N/A time=00:03:21.57 bitrate=N/A speed=   1x    frame= 6060 fps= 30 q=-1.0 size=N/A time=00:03:22.08 bitrate=N/A speed=   1x    frame= 6075 fps= 30 q=-1.0 size=N/A time=00:03:22.57 bitrate=N/A speed=   1x    [in#0/rtsp @ 0x5655516caec0] Error during demuxing: Immediate exit requested
[out#0/rtsp @ 0x5655516d2c80] video:103094KiB audio:2718KiB subtitle:0KiB other streams:0KiB global headers:0KiB muxing overhead: unknown
frame= 6080 fps= 30 q=-1.0 Lsize=N/A time=00:03:22.74 bitrate=N/A speed=   1x    
Exiting normally, received signal 15.
